<svg width="30.000000" height="30.000000" viewBox="0 0 30 30" fill="none" xmlns="http://www.w3.org/2000/svg" xmlns:xlink="http://www.w3.org/1999/xlink">
	<desc>
			Created with Pixso.
	</desc>
	<defs/>
	<path d="M21.5 0C26.59 0 30 3.56 30 8.88L30 21.13C30 26.43 26.59 30 21.5 30L8.5 30C3.41 30 0 26.43 0 21.13L0 8.88C0 3.56 3.41 0 8.5 0L21.5 0ZM21.26 10.5C20.75 9.98 19.91 9.98 19.41 10.5L13.21 16.69L10.58 14.06C10.08 13.56 9.24 13.56 8.73 14.06C8.22 14.58 8.22 15.4 8.73 15.93L12.3 19.48C12.55 19.74 12.88 19.86 13.21 19.86C13.56 19.86 13.89 19.74 14.14 19.48L21.26 12.36C21.77 11.85 21.77 11.02 21.26 10.5Z" fill="#545EE1" fill-opacity="1.000000" fill-rule="nonzero"/>
</svg>
