<?xml version="1.0" standalone="no"?>
<!DOCTYPE svg PUBLIC "-//W3C//DTD SVG 20010904//EN"
 "http://www.w3.org/TR/2001/REC-SVG-20010904/DTD/svg10.dtd">
<svg version="1.0" xmlns="http://www.w3.org/2000/svg"
 width="238.000000pt" height="197.000000pt" viewBox="0 0 238.000000 197.000000"
 preserveAspectRatio="xMidYMid meet">

<g transform="translate(0.000000,197.000000) scale(0.100000,-0.100000)"
fill="#000000" stroke="none">
<path d="M1210 1963 c-146 -11 -413 -64 -440 -87 -8 -8 -32 -21 -54 -30 -36
-15 -38 -18 -32 -48 3 -17 8 -33 10 -35 2 -2 58 -5 125 -6 66 -1 121 -3 121
-3 0 -1 -6 -17 -14 -35 -8 -19 -17 -68 -20 -109 -8 -95 -15 -128 -32 -162 -12
-24 -12 -28 -1 -28 28 0 63 39 102 115 37 71 110 163 121 152 3 -2 7 -17 10
-33 2 -16 11 -45 20 -65 15 -34 15 -39 -1 -63 -16 -25 -16 -29 14 -111 50
-138 39 -237 -31 -287 -23 -16 -50 -22 -107 -26 -104 -6 -126 -19 -141 -82
l-12 -50 -61 0 c-99 -1 -182 -40 -225 -106 -13 -19 -31 -34 -42 -34 -34 0 -68
-22 -81 -51 -6 -16 -15 -29 -19 -29 -4 0 -27 -17 -51 -38 -41 -36 -49 -39
-123 -45 -127 -9 -246 -79 -246 -143 0 -28 58 -96 99 -115 17 -9 62 -14 117
-14 l89 0 6 54 c9 67 19 77 49 51 13 -11 37 -20 56 -20 19 0 49 -11 70 -25 27
-18 50 -25 85 -25 37 0 49 -4 49 -15 0 -23 -39 -101 -61 -121 -32 -29 -24 -51
21 -58 45 -7 85 0 115 20 11 8 34 14 51 14 44 0 57 20 52 79 -3 34 -14 62 -36
91 -24 33 -29 47 -22 61 16 29 11 87 -10 130 -15 29 -19 49 -14 74 4 23 2 41
-6 50 -10 13 -9 19 5 35 21 24 68 33 114 22 34 -7 36 -10 61 -97 43 -149 103
-241 180 -273 19 -8 75 -17 123 -20 69 -4 90 -8 97 -22 7 -13 4 -22 -13 -37
-54 -49 -78 -52 -202 -22 -79 18 -89 19 -110 5 -33 -22 -48 -85 -42 -176 7
-105 25 -146 74 -159 21 -6 115 -11 208 -11 183 0 209 6 234 51 35 63 -57 131
-187 138 -49 2 -72 7 -69 15 2 6 17 12 33 14 52 4 118 24 166 50 25 13 50 23
55 21 5 -2 60 -35 121 -74 75 -46 115 -78 122 -96 35 -83 135 -119 233 -85
152 55 357 259 357 356 0 91 -118 150 -249 124 -46 -9 -87 -56 -105 -118 -17
-58 -51 -98 -108 -127 -46 -24 -65 -24 -103 -1 -53 32 -210 163 -210 174 0 6
49 24 109 39 60 16 129 39 154 51 126 63 141 201 52 488 -11 36 -20 66 -20 67
0 1 26 5 58 8 77 9 137 32 194 74 38 28 56 35 85 33 37 -3 83 24 83 48 0 5 39
48 87 95 84 83 86 85 73 112 -7 16 -13 39 -14 53 -1 17 -13 32 -38 49 -27 17
-38 32 -38 48 0 51 -61 126 -112 138 -37 9 -44 -10 -25 -67 19 -54 11 -69 -19
-35 -56 66 -144 98 -173 63 -9 -11 -6 -20 12 -42 24 -29 47 -67 47 -78 0 -3
-18 -6 -39 -6 -22 0 -52 -5 -67 -10 -24 -10 -26 -14 -21 -50 3 -21 19 -60 36
-85 17 -25 31 -48 31 -51 0 -2 -11 -9 -25 -14 -35 -13 -41 -37 -21 -71 9 -16
15 -33 12 -38 -8 -13 -131 -33 -160 -25 -19 4 -31 22 -53 72 -34 80 -124 226
-155 253 -13 10 -40 23 -60 29 -29 8 -38 16 -39 33 -2 69 -23 108 -68 127 -35
14 -47 40 -31 70 8 16 21 20 58 20 26 0 64 -5 85 -11 22 -6 41 -8 44 -5 9 8
-49 82 -82 104 -28 20 -137 44 -180 40 -11 -1 -40 -3 -65 -5z m193 -26 c39
-17 97 -65 97 -80 0 -8 -22 -11 -71 -9 -78 4 -112 -13 -107 -52 3 -18 -5 -23
-57 -33 -56 -12 -63 -11 -99 9 -47 25 -110 27 -241 5 -102 -17 -103 -17 -129
51 -16 42 -16 43 6 51 23 8 207 44 308 60 90 14 257 13 293 -2z m-633 -102 c0
-8 -14 -17 -35 -21 -48 -9 -56 2 -14 20 43 19 49 19 49 1z m20 -46 c0 -5 -21
-9 -47 -8 l-48 1 40 13 c41 13 55 11 55 -6z m352 -25 c31 -16 31 -17 12 -31
-10 -8 -37 -23 -59 -33 -52 -22 -96 -73 -140 -160 -33 -66 -64 -104 -51 -63 3
11 10 63 15 116 11 108 28 147 75 170 41 21 109 21 148 1z m152 -49 c8 -19 18
-55 22 -81 6 -41 5 -46 -12 -42 -14 2 -25 23 -41 72 -13 38 -20 72 -17 77 12
19 34 7 48 -26z m54 -4 c12 -21 24 -54 27 -75 5 -30 3 -36 -12 -36 -15 0 -22
12 -31 53 -6 28 -14 62 -18 75 -10 35 10 26 34 -17z m78 -64 c6 -39 4 -47 -9
-47 -11 0 -18 12 -22 38 -4 20 -10 47 -16 60 -16 39 -10 48 16 22 16 -17 27
-42 31 -73z m-187 21 c26 -77 26 -88 0 -88 -23 0 -48 50 -57 113 -4 32 -2 37
16 37 16 0 25 -13 41 -62z m965 41 c33 -26 66 -90 60 -115 -3 -11 -25 -32 -49
-47 l-43 -28 -33 20 c-19 11 -51 23 -71 26 -29 6 -39 13 -47 37 -6 16 -22 43
-36 60 -41 48 -14 63 53 29 43 -22 73 -53 96 -99 9 -18 21 -30 26 -27 15 9 12
91 -4 130 -14 32 -14 35 3 35 10 0 30 -9 45 -21z m-1037 -51 c6 -24 14 -53 18
-64 5 -15 2 -23 -9 -27 -11 -5 -22 5 -36 33 -23 45 -25 71 -8 88 19 19 24 15
35 -30z m337 -92 c51 -21 107 -103 179 -263 97 -215 159 -434 159 -564 0 -104
-15 -137 -77 -181 -104 -73 -535 -143 -661 -108 -84 24 -158 124 -194 260 -6
25 -13 52 -16 61 -3 11 7 19 37 28 68 21 104 81 75 126 -11 16 -33 27 -71 36
-52 12 -55 14 -55 44 0 56 18 68 125 81 84 11 102 16 127 41 68 63 77 166 28
290 -44 110 -39 116 155 156 47 10 158 6 189 -7z m602 -32 c26 -13 39 -26 39
-39 0 -18 -7 -20 -57 -20 -32 0 -58 -2 -58 -6 0 -10 39 -19 80 -19 39 0 60
-14 60 -41 0 -25 48 -59 83 -59 25 0 28 -2 17 -16 -29 -34 -50 -37 -79 -11
-39 36 -61 45 -142 58 -85 13 -103 25 -135 93 -18 38 -20 54 -12 69 9 17 18
19 87 15 48 -3 92 -12 117 -24z m214 8 c32 -26 19 -56 -36 -82 -120 -56 -157
23 -39 84 38 20 48 20 75 -2z m38 -104 c4 -22 -68 -68 -107 -68 -29 0 -61 22
-61 41 0 5 10 9 23 9 12 0 40 9 62 20 47 22 79 22 83 -2z m-227 -93 c56 -30
76 -62 59 -95 -25 -46 -90 -49 -90 -5 0 25 -51 75 -76 75 -8 0 -31 -7 -51 -15
-27 -11 -39 -12 -49 -4 -21 17 -17 45 9 57 31 17 157 8 198 -13z m-73 -61 c32
-22 27 -52 -15 -90 -52 -48 -116 -75 -192 -81 l-67 -6 -21 57 -21 56 57 0 c56
0 129 27 176 64 26 20 55 20 83 0z m-1109 -347 c32 -11 36 -16 36 -46 0 -25
-7 -39 -28 -54 -26 -20 -32 -20 -108 -9 -93 13 -124 5 -176 -47 -32 -32 -34
-32 -96 -8 -25 9 -28 14 -23 41 11 56 90 121 166 137 44 10 182 1 229 -14z
m-415 -149 c18 -35 54 -50 114 -44 50 4 52 3 52 -19 0 -48 -72 -59 -165 -24
-85 31 -108 86 -47 107 31 11 31 10 46 -20z m-58 -78 c52 -32 141 -55 185 -46
26 5 31 1 49 -34 19 -37 27 -110 14 -123 -4 -3 -24 3 -46 14 -46 23 -55 18
-60 -31 -3 -35 -4 -35 -54 -38 -64 -4 -84 13 -84 69 0 45 -14 45 -23 -1 -7
-35 -37 -41 -75 -14 -26 18 -28 41 -7 70 22 32 4 38 -21 7 l-21 -27 -12 22
c-17 31 6 80 59 125 24 20 45 37 46 37 2 0 24 -13 50 -30z m-180 -76 c-3 -9
-6 -20 -6 -25 0 -5 -20 -18 -44 -28 -47 -21 -76 -59 -97 -128 -7 -24 -18 -43
-24 -43 -19 0 -115 94 -115 112 0 59 124 126 239 127 44 1 52 -2 47 -15z m16
-107 c-6 -7 -16 -37 -23 -66 l-11 -52 -51 3 c-52 3 -52 3 -51 35 2 44 41 103
78 118 28 12 33 12 50 -5 15 -15 17 -22 8 -33z m397 -57 c42 -41 58 -70 66
-124 6 -38 -3 -53 -34 -57 -23 -4 -24 -1 -26 51 -1 54 -18 102 -51 148 -26 35
-1 26 45 -18z m1466 20 c28 -11 29 -13 10 -24 -42 -24 -85 -78 -120 -153 -52
-111 -68 -129 -162 -190 -46 -29 -86 -60 -90 -68 -10 -27 -45 -16 -85 25 -21
23 -38 47 -38 54 0 8 -57 51 -127 96 -187 121 -268 182 -251 191 7 4 45 10 83
14 66 7 72 6 95 -17 40 -39 179 -147 210 -163 38 -20 66 -19 115 4 59 26 98
70 118 132 21 64 32 80 72 103 34 19 118 17 170 -4z m-1494 -87 c13 -41 7
-116 -11 -138 -14 -17 -110 -21 -110 -5 0 6 15 34 34 63 19 28 37 71 41 95 6
35 10 41 20 32 8 -7 19 -28 26 -47z m1559 41 c0 -2 -9 -4 -21 -4 -11 0 -18 4
-14 10 5 8 35 3 35 -6z m-20 -29 c28 -15 40 -35 21 -35 -16 0 -80 30 -86 40
-9 15 32 12 65 -5z m-27 -39 c45 -18 56 -29 39 -40 -14 -8 -114 43 -107 54 4
6 10 10 13 8 4 -2 28 -11 55 -22z m-824 -37 c41 -31 41 -32 22 -46 -40 -27
-106 -51 -164 -58 -48 -5 -60 -11 -67 -29 -4 -13 -22 -29 -39 -36 -50 -20 -28
-24 29 -5 125 42 307 -31 276 -110 -11 -28 -57 -35 -246 -35 -210 0 -211 0
-230 68 -15 57 -13 188 5 222 18 35 43 38 119 15 91 -28 178 -16 215 29 19 23
31 20 80 -15z m822 -15 c51 -26 20 -38 -37 -14 -57 25 -58 26 -50 39 7 11 32
4 87 -25z m-39 -35 c57 -29 36 -46 -25 -19 -46 21 -62 40 -32 40 9 0 34 -9 57
-21z m-27 -39 c33 -15 37 -19 22 -25 -22 -9 -91 20 -82 35 8 13 12 12 60 -10z
m-33 -36 c39 -20 24 -39 -20 -23 -32 11 -38 19 -25 32 9 9 10 9 45 -9z m-37
-36 c36 -16 31 -32 -7 -24 -37 7 -42 11 -33 25 8 14 8 14 40 -1z m-30 -41 c25
-19 3 -30 -29 -16 -14 7 -26 16 -26 21 0 13 34 9 55 -5z m-46 -31 c20 -11 21
-14 7 -19 -18 -7 -66 11 -66 25 0 12 32 9 59 -6z m-54 -29 c25 -19 3 -30 -29
-16 -14 7 -26 16 -26 21 0 13 34 9 55 -5z m-60 -27 c3 -5 -3 -10 -15 -10 -12
0 -18 5 -15 10 3 6 10 10 15 10 5 0 12 -4 15 -10z"/>
<path d="M1548 1119 c-26 -15 -23 -32 3 -18 12 6 37 8 58 5 34 -6 35 -5 17 9
-23 17 -53 19 -78 4z"/>
<path d="M1344 1110 c-28 -11 -40 -30 -20 -30 8 0 18 5 21 11 4 6 22 8 46 4
25 -4 39 -3 39 4 0 6 -6 11 -12 11 -7 0 -22 2 -33 5 -11 2 -30 0 -41 -5z"/>
<path d="M1333 1026 c-42 -36 -57 -83 -43 -135 23 -85 110 -116 184 -66 37 25
61 30 90 19 37 -14 4 -54 -46 -54 -18 0 -20 -2 -8 -10 19 -12 60 -2 86 21 11
11 25 19 31 19 22 0 63 43 72 75 13 47 -2 94 -38 129 -27 26 -35 28 -81 24
-28 -3 -59 -13 -70 -23 -19 -17 -21 -17 -40 0 -10 9 -39 20 -63 22 -36 4 -48
1 -74 -21z m305 -2 c52 -36 67 -111 29 -156 -34 -41 -81 -43 -71 -2 5 18 1 29
-12 39 -18 13 -18 14 -1 20 25 10 21 49 -8 76 -13 13 -25 27 -25 32 0 13 65 7
88 -9z m-174 -21 c64 -63 40 -170 -42 -186 -26 -5 -39 10 -23 26 16 16 14 47
-4 47 -8 0 -15 4 -15 9 0 5 7 14 15 21 22 18 18 48 -10 76 -14 14 -25 27 -25
29 0 3 17 5 39 5 28 0 45 -7 65 -27z"/>
<path d="M1216 769 c-27 -21 -35 -42 -13 -34 7 3 21 -10 32 -31 37 -69 149
-124 254 -124 54 0 161 18 182 30 9 6 15 29 16 69 0 33 4 65 8 71 10 16 -12
12 -55 -10 -21 -11 -70 -25 -108 -31 -61 -10 -80 -9 -139 7 -95 25 -133 42
-133 59 0 20 -12 19 -44 -6z m56 -31 c20 -17 28 -42 18 -57 -5 -9 -13 -5 -29
15 -33 42 -26 71 11 42z m88 -33 c26 -13 30 -21 30 -55 0 -22 -2 -40 -5 -40
-2 0 -20 8 -40 17 -31 15 -35 21 -35 55 0 42 7 45 50 23z m303 -31 c0 -51 -8
-64 -39 -64 -22 0 -24 4 -24 45 0 31 5 47 18 54 31 19 45 9 45 -35z m-83 -30
l0 -44 -41 0 -40 0 3 42 c3 39 6 43 33 49 41 8 45 4 45 -47z m-98 35 c2 -6 2
-26 0 -45 -4 -31 -7 -34 -38 -34 -19 0 -34 5 -35 10 0 6 -1 24 -1 40 0 17 1
32 1 35 2 10 69 5 73 -6z"/>
</g>
</svg>
